<svg xmlns="http://www.w3.org/2000/svg" viewBox="0 0 200 200">
  <!-- Character Head -->
  <circle cx="100" cy="80" r="60" fill="#FFD700" stroke="#E8C000" stroke-width="2"/>

  <!-- Angry Eyes -->
  <path d="M65 60 L85 70" fill="none" stroke="#000000" stroke-width="3" stroke-linecap="round"/>
  <path d="M135 60 L115 70" fill="none" stroke="#000000" stroke-width="3" stroke-linecap="round"/>
  <circle cx="75" cy="75" r="4" fill="#000000"/>
  <circle cx="125" cy="75" r="4" fill="#000000"/>

  <!-- Angry Mouth -->
  <path d="M80 105 L120 105" fill="none" stroke="#000000" stroke-width="3" stroke-linecap="round"/>

  <!-- Steam/Angry marks -->
  <path d="M150 50 L160 40" stroke="#FF0000" stroke-width="2" stroke-linecap="round"/>
  <path d="M155 55 L165 45" stroke="#FF0000" stroke-width="2" stroke-linecap="round"/>
  <path d="M145 45 L155 35" stroke="#FF0000" stroke-width="2" stroke-linecap="round"/>

  <!-- Body -->
  <rect x="70" y="140" width="60" height="40" rx="10" fill="#FF6347" stroke="#E05040" stroke-width="2"/>

  <!-- Arms -->
  <rect x="25" y="145" width="45" height="10" rx="5" fill="#FF6347" stroke="#E05040" stroke-width="2"/>
  <rect x="130" y="145" width="45" height="10" rx="5" fill="#FF6347" stroke="#E05040" stroke-width="2"/>

  <!-- Fists -->
  <circle cx="25" cy="150" r="8" fill="#FFD700" stroke="#E8C000" stroke-width="2"/>
  <circle cx="175" cy="150" r="8" fill="#FFD700" stroke="#E8C000" stroke-width="2"/>

  <!-- Legs -->
  <rect x="80" y="180" width="10" height="20" rx="5" fill="#4169E1" stroke="#3050C0" stroke-width="2"/>
  <rect x="110" y="180" width="10" height="20" rx="5" fill="#4169E1" stroke="#3050C0" stroke-width="2"/>
</svg>
