<svg xmlns="http://www.w3.org/2000/svg" viewBox="0 0 200 200">
  <!-- Character Head -->
  <circle cx="100" cy="80" r="60" fill="#FFD700" stroke="#E8C000" stroke-width="2"/>

  <!-- Eyes -->
  <circle cx="75" cy="70" r="8" fill="#FFFFFF" stroke="#000000" stroke-width="1"/>
  <circle cx="125" cy="70" r="8" fill="#FFFFFF" stroke="#000000" stroke-width="1"/>
  <circle cx="75" cy="70" r="4" fill="#000000"/>
  <circle cx="125" cy="70" r="4" fill="#000000"/>

  <!-- Thinking Expression -->
  <path d="M75 95 Q100 95 125 95" fill="none" stroke="#000000" stroke-width="3" stroke-linecap="round"/>

  <!-- Thinking Bubble -->
  <circle cx="150" cy="40" r="5" fill="#FFFFFF" stroke="#000000" stroke-width="1"/>
  <circle cx="145" cy="30" r="8" fill="#FFFFFF" stroke="#000000" stroke-width="1"/>
  <circle cx="135" cy="20" r="12" fill="#FFFFFF" stroke="#000000" stroke-width="1"/>
  <circle cx="120" cy="10" r="15" fill="#FFFFFF" stroke="#000000" stroke-width="1"/>

  <!-- Thinking Hand -->
  <rect x="130" y="145" width="30" height="10" rx="5" fill="#FF6347" stroke="#E05040" stroke-width="2" transform="rotate(-30 130 145)"/>

  <!-- Body -->
  <rect x="70" y="140" width="60" height="40" rx="10" fill="#FF6347" stroke="#E05040" stroke-width="2"/>

  <!-- Other Arm -->
  <rect x="40" y="145" width="30" height="10" rx="5" fill="#FF6347" stroke="#E05040" stroke-width="2"/>

  <!-- Legs -->
  <rect x="80" y="180" width="10" height="20" rx="5" fill="#4169E1" stroke="#3050C0" stroke-width="2"/>
  <rect x="110" y="180" width="10" height="20" rx="5" fill="#4169E1" stroke="#3050C0" stroke-width="2"/>
</svg>
